<svg x-ignore id="asterisk" xmlns="http://www.w3.org/2000/svg" viewBox="0 0 128.2 138.9"><path fill="currentColor" d="M57 2c-3 1-3 4-2 6l3 19 2 17c0 2-3 0-4-1L42 32l-11-7c-3-1-4 1-6 3-1 1-2 4 0 5l6 5 20 19c3 3 7 6 8 10 0 3-3 2-4 2l-35-1-10-1c-3 0-5 3-7 4s-3 3-3 5 2 3 4 4l9 1 26 1c2 0 3 2 1 3l-14 17c0 2-3 2-4 4l-4 4c-1 2-3 3-3 6-1 2-3 4-3 7s1 7 4 8c2 1 4-1 5-3l5-8 16-18 17-15c2-1 3-3 5-3 3 0 3 3 3 4l2 16v32c1 2 4 1 6 1 2-1 3-4 3-6l3-15 2-10c2 0 2 3 3 4l4 11 1 17c1 2 4 0 5 0 2-1 4-2 4-4l1-16-3-12-8-20c0-2 3-2 5-2 9 0 19 1 28-1 4 0 6-5 5-8-2-2-5-2-7-3-4-1-8-2-13-1H91l-4-1c-1-2 2-3 3-4l8-6 6-5 14-17 1-4c0-3-1-6-3-7-4-1-8 0-10 3l-4 3-14 14-7 5c-1 1-2 4-3 2l-3-15-3-14-5-23c-2-2-4-2-6-2l-4 2Z"/></svg>