<svg version="1" xmlns="http://www.w3.org/2000/svg" width="360" height="360" viewBox="0 0 270.000000 270.000000"><path d="M133.9 31.5c-.3.2-3.8.9-7.9 1.6-4.1.6-8.7 2-10.2 3-1.4 1.1-3 1.9-3.6 1.9-1.4 0-16 15-20.7 21.2-4.8 6.5-7.4 16.9-7.4 30.5-.1 7.9-.4 9.6-2.1 11.3-1.3 1.3-2 3.3-2 6.1 0 4.5 3.8 21.9 5.1 23.4.5.5.9 1.7.9 2.7 0 1.1 1.1 2.9 2.3 4.1 1.8 1.6 2.5 3.7 3 7.8.6 6.7 3.4 12.6 8.8 18.4 3.8 4.1 3.9 4.4 3.9 11.4v7.2l-5.7 2.7c-3.2 1.5-8.3 4.4-11.3 6.3-3 2-8.2 5.1-11.5 6.9-3.3 1.7-7.7 4.9-9.8 7.1-2.1 2.1-4.3 3.9-5 3.9-2.1 0-5.9 3.2-5 4.1.5.5 2.6.4 4.7-.2 2.8-.8 5-.8 8 0 2.3.7 6.8 1.6 10.1 2.1l6 .9-6.4-.4c-3.5-.3-8.1-1-10.3-1.7-3.2-.9-4.4-.9-7.2.5-1.9.8-4.3 1.3-5.5 1-1.2-.3-2.7-.1-3.4.4-1.8 1.5-7 2.6-6.2 1.3.3-.5.3-1-.2-1-2 .1-5.6 3-10.8 8.8-6.6 7.2-6.7 6.7 3.1 13.9 3.5 2.6 6.4 5.1 6.4 5.5 0 1.2-2.7-.4-9.4-5.6-3.3-2.5-6.7-4.6-7.6-4.6-2.1 0-13.9 10.9-12.5 11.6 3 1.3 25.7 17.9 27.9 20.3 1.8 1.9 2.9 2.1 14.5 2.1 6.9 0 16-.5 20.1-1.1 17.1-2.3 29.1-3.2 38.5-3 5.5.1 16.5-.3 24.5-.9 8-.5 21.7-1.5 30.5-2s19.2-1.4 23-2c7.8-1.1 27.9-2.7 42.9-3.5 7.4-.3 9.7-.2 8.9.6-.7.7-7.7 1.5-16.5 2-19.8 1.2-35.6 2.5-43.8 3.8-3.6.6-10.8 1.1-16 1.1-5.2 0-12.9.5-17 1.1-4.1.5-17.2 1.2-29 1.5-11.8.2-24.9.8-29 1.3-4.5.5 29.1.9 84.3 1l91.7.1v-2.5c0-2.5 0-2.5-2.7-.8l-2.8 1.7 2.8-3c2.6-2.9 2.7-3.4 2.7-13.9v-10.9l-6 5.9c-7.8 7.7-7.8 5.9 0-2.7l6-6.6v-6.4c0-6.1-.2-6.7-3.7-10.5-4.2-4.5-14.4-9.8-21.3-11.1-2.5-.5-13.4-.8-24.3-.7-13.4.1-19.5-.1-18.8-.8.7-.7 8.6-1 20.8-.9l19.8.1-9.4-4.5c-5.2-2.4-9.8-4.4-10.2-4.4-.4 0-6.9-3.1-14.3-6.9-9.8-5-15.1-7.1-19.1-7.6-7.2-.9-7.9-.2-1.9 1.9 7.1 2.4 9.4 5 9.4 10.5 0 6.6-3.7 13.6-11.9 22.9-5.9 6.7-8.4 8.7-15.2 12.1-4.5 2.3-9.2 4.1-10.5 4.1-2.5 0-2.4.1-2.8-7.7-.1-2.2-.9-3.8-2.4-4.9-2.1-1.5-7.2-11.2-7.2-13.8 0-.6-.9-1.9-2-2.9-2.5-2.1-2.6-4.3-.2-5.6.9-.6 1.3-1.1.7-1.1-.5 0 .1-.6 1.4-1.3 1.3-.6 2.3-1.6 2.2-2.1-.2-.5.1-1.2.6-1.5 1.8-1.3 6.3-8 6.3-9.4 0-.9 2.4-3.6 5.3-6.2l5.2-4.7-4.8 3.3c-2.7 1.9-5.1 3.7-5.3 4.1-.7 1.1-6.8 1-8-.2-1-1-6.3-1.3-10.6-.6-3 .5-6.8-1.8-6.8-4 0-.8-.4-1.4-1-1.4-1.6 0-1.2-2.2.8-3.6.9-.7 2.7-1.4 3.9-1.4 2.6 0 7.1-1.8 9.5-3.8 1.5-1.3 1.4-1.6-1.5-4.2-2.5-2.2-3.5-2.6-4.6-1.7-1.1.9-1.5.9-1.9-.1-.3-1-.7-1-2 0-1 .7-1.4.8-1 .4.4-.5.3-1.5-.3-2.3-.9-1.1-.2-1.3 4.2-1.3 5.4 0 9-1.3 7.6-2.6-.3-.4-1.2-.2-1.9.3-1.6 1.2-10.8.5-10.8-.8 0-.6-.8-.9-1.7-.7-1.2.2-1.9-.4-2.1-2-.4-2.4.7-2.9 2.6-1 .9.9 1.2.9 1.2-.1 0-.8 1-1.1 2.8-1 1.5.2 3.2.1 3.7-.2.9-.5 9-.5 13.4-.1.7.1 1.1.8.7 1.7-.7 1.8-.4 1.8 2.9.3 2.3-1 2.8-1 3.6.5 1.3 2.3 2.6 2.1 3.4-.4.8-2.5-1.2-6.9-3.2-6.9-.8 0-2.1.7-3 1.5-.8.8-1.8 1.3-2.2 1.1-.4-.3-4.3-.6-8.7-.7-4.3 0-9-.3-10.4-.7-2.2-.5-2.3-.6-.5-1.3 1.1-.4 3.3-.8 4.9-.8 2.4-.1 2.7-.4 2.3-2.2-.4-1.6.2-2.5 2.9-4.1 1.9-1.1 3.4-2.4 3.4-2.9 0-1.6-5.4.2-7.1 2.4l-1.7 2-1.1-2.2c-.7-1.2-1.6-1.9-2-1.7-.5.3-1.6-.3-2.6-1.4-1.4-1.5-1.6-2.9-1.1-6.2.4-2.4.8-6.4 1-9 .6-7.4 1.7-13.2 2.8-14.5 1.7-2.1-.1-4.9-4.2-6.8-2.2-1-3.7-2.1-3.5-2.5.6-.9-4.8-3-7.6-3-4.4 0-5.6-4.4-3-11.3 1-2.5.4-6.8-1-7.7-.4-.3-.9-2.2-1.2-4.4-.3-2.1-1-4.2-1.7-4.6-.6-.4-1.1-1-1.1-1.4.1-.3-.2-.6-.5-.5-.4 0-1.1-.5-1.5-1.3-.7-1.1-1.1-1.1-1.7 0-.7 1-1.1 1-2.2-.2-.7-.9-1.7-1.3-2.3-.9-.6.3-.7.1-.3-.5.4-.7.2-1.2-.3-1.2-.6 0-1.1.4-1.1.8 0 1-2.5 4.3-6.7 9.1-3.2 3.5-3.2 3.5-3.3 1.1 0-5.2 10.3-19.2 12.9-17.5.6.3.9 1 .7 1.4-.9 1.4 14.1.5 15.4-1 .5-.5 15.3-4 17.5-4.1 3.3-.2 20.6 1.5 23.9 2.3 5.5 1.5 13 8.9 16.9 16.8 3.5 7.1 3.2 4.9 3.6 35.8 0 7.3.5 13.3.9 13.3.5 0 1.7-1.7 2.8-3.8 1-2 2.8-4.5 3.9-5.4 1.2-1 1.5-1.8.7-1.8-.9 0-1-1.1-.6-3.8.6-4.1-1.9-22.3-3.9-28.2-1.3-3.9-9.3-15.7-14.1-20.8-5.9-6.3-16.5-13-24.6-15.7-7.2-2.3-14-3.2-15.1-2zM94.7 97.9c-.3 1-.5.7-.6-.7 0-1.3-.5-2-1.1-1.7-.5.3-.8 1.6-.6 2.8.3 1.2.5 2.9.5 3.7.1 1.3.2 1.3 1.1 0 .7-1.1.8-.5.3 2-.3 1.9-1.2 4.1-2 4.8-1.1 1.1-1.3.2-1.3-5.2 0-3.5.5-7.7 1.1-9.3l1.1-2.8.9 2.4c.6 1.4.8 3.2.6 4zm14.2 20.7c1.5-1 6.1-1.4 6.1-.7 0 .5.9 1.1 2 1.4 2 .5 2 .6.4 4.1-1 2-2.9 4-4.6 4.7-2.7 1.1-3.2 1-5.4-1.4-2.9-3.1-3-3.8-.6-3.1 1.5.4 1.5.4.1-.7-1.3-.9-1.4-1.7-.5-3.5.6-1.3 1.3-1.9 1.4-1.4.2.6.7.8 1.1.6zm16.2 52.1c1.3 1.5 1.2 1.5-.8.4-2.4-1.2-2.9-2.1-1.4-2.1.5 0 1.5.7 2.2 1.7zm10.6 10.9c-.3.3-1.2.4-1.9.1-.8-.3-.5-.6.6-.6 1.1-.1 1.7.2 1.3.5zm72.8 9.4c.3.6-.1.7-.9.4-1.8-.7-2.1-1.4-.7-1.4.6 0 1.3.4 1.6 1zM94.7 210.6c-.3.3-1.2.4-1.9.1-.8-.3-.5-.6.6-.6 1.1-.1 1.7.2 1.3.5zm41.6 9.4c2.6 2.1 9.2 12.8 8.3 13.7-.2.3-2.9-.2-5.9-1.1-5.8-1.7-7.2-3.4-8.3-10.6-.6-3.5-.4-4 1.3-4 1.1 0 3.2.9 4.6 2zm126.9-.2c1.1 1.1.9 1.2-1.2.7-1.4-.3-3.4-.6-4.5-.5-1.1 0-9.2.3-17.9.5-8.8.2-16.7.8-17.5 1.2-.9.4-6.3 1-12.1 1.4-5.8.4-13.1.9-16.3 1.2-4.2.3-5.5.1-4.8-.6 1.1-1.1 3.6-1.4 20.1-2.2 5.2-.3 11.1-1 13-1.5 4.5-1.3 8.4-1.5 25.7-1.5 10.4 0 14.5.4 15.5 1.3zm-155.5 7.6c3.4.1 6.5.4 6.9.8.9 1-9.6 1-14.8.2-2.1-.4-3.5-1.1-3.2-1.6.4-.6 1.6-.6 2.8-.2 1.1.4 4.9.8 8.3.8zM93 229.9c-2.9 1.6-13.6 2.5-31.7 2.5-15.8.1-18-.1-16.8-1.3 1.1-1.1 2-1.2 3.8-.4 1.5.7 2.9.8 3.8.2.8-.5 7.1-.7 14.4-.3 7.2.3 15.7.1 19-.4 8.4-1.3 9.4-1.4 7.5-.3zm167 5.3c0 .7-1.2 1.4-2.7 1.5-1.6 0-7.7.7-13.8 1.3-6 .7-13.7 1.4-17 1.6-10.8.5-31.8 2.1-44 3.3-47.5 4.5-68 5.6-75.2 3.8-2.9-.8-5.3-.8-8 0-8.4 2.4-25.5 4.3-38.5 4.3-7.6 0-13.8-.4-13.8-.9 0-1.2 2.9-2.3 4.1-1.5 1.6 1 27.4.5 32.5-.6 14-3.2 17.2-3.4 37.3-2.5 11.3.5 18.4.2 32.5-1.4 31.2-3.5 53.7-5.5 74.6-6.5 11.3-.6 27-2.3 27.7-2.9 1.1-1.2 4.3-.8 4.3.5zm-3 19.3c0 1.1-1.2 1.5-4.5 1.5-5.2 0-6.1-1.7-1.2-2.3 1.7-.2 3.8-.5 4.5-.5.6-.1 1.2.5 1.2 1.3z"/><path d="M152.4 91.4c-3.9 1.7-4.9 3.3-3.4 5.1.9 1 .7 1.5-1 2-3.1 1-2.4 4.3 1.8 9 1.1 1.3 1.1 1.5-.4 1.5-1.4 0-1.5.2-.3 1.7 2 2.3 7.2 4.3 11.4 4.3 4.4 0 4.5-1.6.3-3.3l-3.3-1.4 4-1.3c2.2-.8 5.4-1.3 7-1.1 4 .4 2.4-1.2-4-3.8-3.4-1.3-4.3-2-2.7-2 1.2-.1 3.8.6 5.8 1.4 5.6 2.3 2.7-.4-3.2-3-7.4-3.3-7.1-5.8.7-5.7 4.3.1 5.2-1.4 1.7-2.7-4.8-1.7-11.3-2.1-14.4-.7zM193.8 106.6c-.8.7.2 8.7 1.2 9.7.9 1.1 2.2-6.7 1.4-8.7-.6-1.6-1.6-2-2.6-1zM186.7 116.4c-.3.8-.2 1.8.3 2.1 1.3.8 2.4-1.5 1.2-2.7-.6-.6-1.1-.4-1.5.6zM150.8 126.2c1.7 6.8 9 13.7 15.4 14.6l4 .5-1.6-2.9c-1.9-3.6-8-9.5-12.6-12.3-4.5-2.7-6-2.7-5.2.1zM10.6 249.7c-.7 1.6-2.1 5.2-2.9 8.1-1.6 5.2-1.6 5.2.9 6.8 2.9 1.9 2.5 3.1-.4 1.5-1.5-.8-2.1-.7-2.5.3-.5 1.2 2.7 1.4 18.1 1.5l18.7.2-3.9-3.3c-5.1-4.3-24.7-17.8-25.8-17.8-.4 0-1.4 1.2-2.2 2.7z"/></svg>