<?xml version="1.0" encoding="utf-8"?>
<svg xmlns="http://www.w3.org/2000/svg">
<symbol id="github" viewBox="0 0 24 24"><title>GitHub icon</title><path d="M12 .297c-6.63 0-12 5.373-12 12 0 5.303 3.438 9.8 8.205 11.385.6.113.82-.258.82-.577 0-.285-.01-1.04-.015-2.04-3.338.724-4.042-1.61-4.042-1.61C4.422 18.07 3.633 17.7 3.633 17.7c-1.087-.744.084-.729.084-.729 1.205.084 1.838 1.236 1.838 1.236 1.07 1.835 2.809 1.305 3.495.998.108-.776.417-1.305.76-1.605-2.665-.3-5.466-1.332-5.466-5.93 0-1.31.465-2.38 1.235-3.22-.135-.303-.54-1.523.105-3.176 0 0 1.005-.322 3.3 1.23.96-.267 1.98-.399 3-.405 1.02.006 2.04.138 3 .405 2.28-1.552 3.285-1.23 3.285-1.23.645 1.653.24 2.873.12 3.176.765.84 1.23 1.91 1.23 3.22 0 4.61-2.805 5.625-5.475 5.92.42.36.81 1.096.81 2.22 0 1.606-.015 2.896-.015 3.286 0 .315.21.69.825.57C20.565 22.092 24 17.592 24 12.297c0-6.627-5.373-12-12-12"/>
</symbol>
<symbol id="heart" viewBox="3.53299999 12 46.93399811 44"><path d="M38.723 12c-7.187 0-11.16 7.306-11.723 8.131C26.437 19.306 22.504 12 15.277 12 8.791 12 3.533 18.163 3.533 24.647 3.533 39.964 21.891 55.907 27 56c5.109-.093 23.467-16.036 23.467-31.353C50.467 18.163 45.209 12 38.723 12z"/>
</symbol>
<symbol id="speech" viewBox="0 2 32 29.98600006"><path d="M16 2c8.837 0 16 5.82 16 13s-7.163 13-16 13c-.85 0-1.682-.054-2.495-.158C10.068 31.28 5.965 31.895 2 31.986v-.84c2.142-1.05 4-2.962 4-5.146 0-.305-.024-.604-.068-.897C2.312 22.72 0 19.08 0 15 0 7.82 7.163 2 16 2z"/>
</symbol>
<symbol id="twitter-reply" viewBox="5 15.80500031 54 38.19499969"><path d="M41 31h-9V19c0-1.14-.647-2.183-1.668-2.688-1.022-.507-2.243-.39-3.15.302l-21 16C5.438 33.18 5 34.064 5 35s.437 1.82 1.182 2.387l21 16c.533.405 1.174.613 1.82.613.453 0 .908-.103 1.33-.312C31.354 53.183 32 52.14 32 51V39h9c5.514 0 10 4.486 10 10 0 2.21 1.79 4 4 4s4-1.79 4-4c0-9.925-8.075-18-18-18z"/>
</symbol>
<symbol id="twitter-retweet" viewBox="2.81299996 15 68.37399292 41"><path d="M70.676 36.644C70.166 35.636 69.13 35 68 35h-7V19c0-2.21-1.79-4-4-4H34c-2.21 0-4 1.79-4 4s1.79 4 4 4h18c.552 0 .998.446 1 .998V35h-7c-1.13 0-2.165.636-2.676 1.644-.51 1.01-.412 2.22.257 3.13l11 15C55.148 55.545 56.046 56 57 56s1.855-.455 2.42-1.226l11-15c.668-.912.767-2.122.256-3.13zM40 48H22c-.54 0-.97-.427-.992-.96L21 36h7c1.13 0 2.166-.636 2.677-1.644.51-1.01.412-2.22-.257-3.13l-11-15C18.854 15.455 17.956 15 17 15s-1.854.455-2.42 1.226l-11 15c-.667.912-.767 2.122-.255 3.13C3.835 35.365 4.87 36 6 36h7l.012 16.003c.002 2.208 1.792 3.997 4 3.997h22.99c2.208 0 4-1.79 4-4s-1.792-4-4-4z"/>
</symbol>
<symbol id="twitter" viewBox="0 0 24 24"><title>Twitter icon</title><path d="M23.953 4.57a10 10 0 01-2.825.775 4.958 4.958 0 002.163-2.723c-.951.555-2.005.959-3.127 1.184a4.92 4.92 0 00-8.384 4.482C7.69 8.095 4.067 6.13 1.64 3.162a4.822 4.822 0 00-.666 2.475c0 1.71.87 3.213 2.188 4.096a4.904 4.904 0 01-2.228-.616v.06a4.923 4.923 0 003.946 4.827 4.996 4.996 0 01-2.212.085 4.936 4.936 0 004.604 3.417 9.867 9.867 0 01-6.102 2.105c-.39 0-.779-.023-1.17-.067a13.995 13.995 0 007.557 2.209c9.053 0 13.998-7.496 13.998-13.985 0-.21 0-.42-.015-.63A9.935 9.935 0 0024 4.59z"/>
</symbol></svg>