<svg xmlns="http://www.w3.org/2000/svg">
<symbol id="asterisk" viewBox="0 0 128.2 138.9"><path fill="currentColor" d="M57 2c-3 1-3 4-2 6l3 19 2 17c0 2-3 0-4-1L42 32l-11-7c-3-1-4 1-6 3-1 1-2 4 0 5l6 5 20 19c3 3 7 6 8 10 0 3-3 2-4 2l-35-1-10-1c-3 0-5 3-7 4s-3 3-3 5 2 3 4 4l9 1 26 1c2 0 3 2 1 3l-14 17c0 2-3 2-4 4l-4 4c-1 2-3 3-3 6-1 2-3 4-3 7s1 7 4 8c2 1 4-1 5-3l5-8 16-18 17-15c2-1 3-3 5-3 3 0 3 3 3 4l2 16v32c1 2 4 1 6 1 2-1 3-4 3-6l3-15 2-10c2 0 2 3 3 4l4 11 1 17c1 2 4 0 5 0 2-1 4-2 4-4l1-16-3-12-8-20c0-2 3-2 5-2 9 0 19 1 28-1 4 0 6-5 5-8-2-2-5-2-7-3-4-1-8-2-13-1H91l-4-1c-1-2 2-3 3-4l8-6 6-5 14-17 1-4c0-3-1-6-3-7-4-1-8 0-10 3l-4 3-14 14-7 5c-1 1-2 4-3 2l-3-15-3-14-5-23c-2-2-4-2-6-2l-4 2Z"/></symbol>
<symbol id="drupal" viewBox="0 0 24 24"><path fill="currentColor" d="M15.78 5.113C14.09 3.425 12.48 1.815 11.998 0c-.48 1.815-2.09 3.425-3.778 5.113-2.534 2.53-5.405 5.4-5.405 9.702a9.184 9.185 0 1018.368 0c0-4.303-2.871-7.171-5.405-9.702M6.72 16.954c-.563-.019-2.64-3.6 1.215-7.416l2.55 2.788a.218.218 0 01-.016.325c-.61.625-3.204 3.227-3.527 4.126-.066.186-.164.18-.222.177M12 21.677a3.158 3.158 0 01-3.158-3.159 3.291 3.291 0 01.787-2.087c.57-.696 2.37-2.655 2.37-2.655s1.774 1.988 2.367 2.649a3.09 3.09 0 01.792 2.093A3.158 3.158 0 0112 21.677m6.046-5.123c-.068.15-.223.398-.431.405-.371.014-.411-.177-.686-.583-.604-.892-5.864-6.39-6.848-7.455-.866-.935-.122-1.595.223-1.94C10.736 6.547 12 5.285 12 5.285s3.766 3.574 5.336 6.016c1.57 2.443 1.029 4.556.71 5.253"/>
</symbol>
<symbol id="github" viewBox="0 0 24 24"><path fill="currentColor" d="M12 .297c-6.63 0-12 5.373-12 12 0 5.303 3.438 9.8 8.205 11.385.6.113.82-.258.82-.577 0-.285-.01-1.04-.015-2.04-3.338.724-4.042-1.61-4.042-1.61C4.422 18.07 3.633 17.7 3.633 17.7c-1.087-.744.084-.729.084-.729 1.205.084 1.838 1.236 1.838 1.236 1.07 1.835 2.809 1.305 3.495.998.108-.776.417-1.305.76-1.605-2.665-.3-5.466-1.332-5.466-5.93 0-1.31.465-2.38 1.235-3.22-.135-.303-.54-1.523.105-3.176 0 0 1.005-.322 3.3 1.23.96-.267 1.98-.399 3-.405 1.02.006 2.04.138 3 .405 2.28-1.552 3.285-1.23 3.285-1.23.645 1.653.24 2.873.12 3.176.765.84 1.23 1.91 1.23 3.22 0 4.61-2.805 5.625-5.475 5.92.42.36.81 1.096.81 2.22 0 1.606-.015 2.896-.015 3.286 0 .315.21.69.825.57C20.565 22.092 24 17.592 24 12.297c0-6.627-5.373-12-12-12"/>
</symbol>
<symbol id="heart" viewBox="3.533 12 46.934 44"><path fill="currentColor" d="M38.723 12c-7.187 0-11.16 7.306-11.723 8.131C26.437 19.306 22.504 12 15.277 12 8.791 12 3.533 18.163 3.533 24.647 3.533 39.964 21.891 55.907 27 56c5.109-.093 23.467-16.036 23.467-31.353C50.467 18.163 45.209 12 38.723 12z"/>
</symbol>
<symbol id="mastodon" viewBox="0 0 74 79"><path d="M73.7014 17.4323C72.5616 9.05152 65.1774 2.4469 56.424 1.1671C54.9472 0.950843 49.3518 0.163818 36.3901 0.163818H36.2933C23.3281 0.163818 20.5465 0.950843 19.0697 1.1671C10.56 2.41145 2.78877 8.34604 0.903306 16.826C-0.00357854 21.0022 -0.100361 25.6322 0.068112 29.8793C0.308275 35.9699 0.354874 42.0498 0.91406 48.1156C1.30064 52.1448 1.97502 56.1419 2.93215 60.0769C4.72441 67.3445 11.9795 73.3925 19.0876 75.86C26.6979 78.4332 34.8821 78.8603 42.724 77.0937C43.5866 76.8952 44.4398 76.6647 45.2833 76.4024C47.1867 75.8033 49.4199 75.1332 51.0616 73.9562C51.0841 73.9397 51.1026 73.9184 51.1156 73.8938C51.1286 73.8693 51.1359 73.8421 51.1368 73.8144V67.9366C51.1364 67.9107 51.1302 67.8852 51.1186 67.862C51.1069 67.8388 51.0902 67.8184 51.0695 67.8025C51.0489 67.7865 51.0249 67.7753 50.9994 67.7696C50.9738 67.764 50.9473 67.7641 50.9218 67.7699C45.8976 68.9569 40.7491 69.5519 35.5836 69.5425C26.694 69.5425 24.3031 65.3699 23.6184 63.6327C23.0681 62.1314 22.7186 60.5654 22.5789 58.9744C22.5775 58.9477 22.5825 58.921 22.5934 58.8965C22.6043 58.8721 22.621 58.8505 22.6419 58.8336C22.6629 58.8167 22.6876 58.8049 22.714 58.7992C22.7404 58.7934 22.7678 58.794 22.794 58.8007C27.7345 59.9796 32.799 60.5746 37.8813 60.5733C39.1036 60.5733 40.3223 60.5733 41.5447 60.5414C46.6562 60.3996 52.0437 60.1408 57.0728 59.1694C57.1983 59.1446 57.3237 59.1233 57.4313 59.0914C65.3638 57.5847 72.9128 52.8555 73.6799 40.8799C73.7086 40.4084 73.7803 35.9415 73.7803 35.4523C73.7839 33.7896 74.3216 23.6576 73.7014 17.4323ZM61.4925 47.3144H53.1514V27.107C53.1514 22.8528 51.3591 20.6832 47.7136 20.6832C43.7061 20.6832 41.6988 23.2499 41.6988 28.3194V39.3803H33.4078V28.3194C33.4078 23.2499 31.3969 20.6832 27.3894 20.6832C23.7654 20.6832 21.9552 22.8528 21.9516 27.107V47.3144H13.6176V26.4937C13.6176 22.2395 14.7157 18.8598 16.9118 16.3545C19.1772 13.8552 22.1488 12.5719 25.8373 12.5719C30.1064 12.5719 33.3325 14.1955 35.4832 17.4394L37.5587 20.8853L39.6377 17.4394C41.7884 14.1955 45.0145 12.5719 49.2765 12.5719C52.9614 12.5719 55.9329 13.8552 58.2055 16.3545C60.4017 18.8574 61.4997 22.2371 61.4997 26.4937L61.4925 47.3144Z" fill="inherit"/>
</symbol>
<symbol id="speech" viewBox="0 2 32 29.986"><path fill="currentColor" d="M16 2c8.837 0 16 5.82 16 13s-7.163 13-16 13c-.85 0-1.682-.054-2.495-.158C10.068 31.28 5.965 31.895 2 31.986v-.84c2.142-1.05 4-2.962 4-5.146 0-.305-.024-.604-.068-.897C2.312 22.72 0 19.08 0 15 0 7.82 7.163 2 16 2z"/>
</symbol>
<symbol id="twitter-reply" viewBox="5 15.805 54 38.195"><path fill="currentColor" d="M41 31h-9V19a3 3 0 00-4.818-2.386l-21 16a3 3 0 000 4.773l21 16a3.006 3.006 0 003.15.301A2.998 2.998 0 0032 51V39h9c5.514 0 10 4.486 10 10 0 2.21 1.79 4 4 4s4-1.79 4-4c0-9.925-8.075-18-18-18z"/>
</symbol>
<symbol id="twitter-retweet" viewBox="2.813 15 68.374 41"><path fill="currentColor" d="M70.676 36.644A3 3 0 0068 35h-7V19c0-2.21-1.79-4-4-4H34c-2.21 0-4 1.79-4 4s1.79 4 4 4h18a1 1 0 011 .998V35h-7a3.001 3.001 0 00-2.419 4.774l11 15a3.003 3.003 0 004.839 0l11-15a3.001 3.001 0 00.256-3.13zM40 48H22a.994.994 0 01-.992-.96L21 36h7a3 3 0 002.42-4.774l-11-15a3.001 3.001 0 00-4.84 0l-11 15A3 3 0 006 36h7l.012 16.003a4 4 0 004 3.997h22.99a4 4 0 000-8z"/>
</symbol>
<symbol id="twitter" viewBox="0 0 24 24"><path fill="currentColor" d="M23.953 4.57a10 10 0 01-2.825.775 4.958 4.958 0 002.163-2.723c-.951.555-2.005.959-3.127 1.184a4.92 4.92 0 00-8.384 4.482C7.69 8.095 4.067 6.13 1.64 3.162a4.822 4.822 0 00-.666 2.475c0 1.71.87 3.213 2.188 4.096a4.904 4.904 0 01-2.228-.616v.06a4.923 4.923 0 003.946 4.827 4.996 4.996 0 01-2.212.085 4.936 4.936 0 004.604 3.417 9.867 9.867 0 01-6.102 2.105c-.39 0-.779-.023-1.17-.067a13.995 13.995 0 007.557 2.209c9.053 0 13.998-7.496 13.998-13.985 0-.21 0-.42-.015-.63A9.935 9.935 0 0024 4.59z"/>
</symbol></svg>